<svg width="329" height="276" viewBox="0 0 329 276" fill="none" xmlns="http://www.w3.org/2000/svg">
<path d="M302.888 270.685L297.976 270.684L295.64 251.709H302.889L302.888 270.685Z" fill="#9E616A"/>
<path d="M304.141 275.453L288.303 275.453V275.252C288.303 273.615 288.952 272.044 290.109 270.887C291.265 269.729 292.833 269.078 294.467 269.078H294.468L304.141 269.078L304.141 275.453Z" fill="#2F2E41"/>
<path d="M284.058 270.685L279.146 270.684L276.809 251.709H284.058L284.058 270.685Z" fill="#9E616A"/>
<path d="M285.31 275.453L269.472 275.453V275.252C269.473 273.615 270.122 272.044 271.278 270.887C272.434 269.729 274.002 269.078 275.637 269.078H275.637L285.311 269.078L285.31 275.453Z" fill="#2F2E41"/>
<path d="M71.8491 274.72V122.31C71.8491 121.371 72.2214 120.471 72.8841 119.807C73.5468 119.144 74.4456 118.771 75.3828 118.771H91.1524C92.0896 118.771 92.9884 119.144 93.6511 119.807C94.3138 120.471 94.6861 121.371 94.6861 122.31V275.117L71.8491 274.72Z" fill="#3F3D56"/>
<path d="M123.933 275.197V154.011C123.933 153.072 124.306 152.172 124.968 151.508C125.631 150.845 126.53 150.472 127.467 150.472H143.237C144.174 150.472 145.073 150.845 145.735 151.508C146.398 152.172 146.77 153.072 146.77 154.011V274.936L123.933 275.197Z" fill="#3F3D56"/>
<path d="M31.3832 131.218C31.1511 131.218 30.924 131.151 30.7293 131.024C30.5346 130.897 30.3806 130.717 30.286 130.505C30.1914 130.293 30.1602 130.057 30.1962 129.828C30.2321 129.598 30.3337 129.384 30.4887 129.211L83.2163 70.3065L135.108 99.4913L187.308 9.40529L240.485 53.243C240.607 53.3434 240.708 53.4669 240.782 53.6065C240.857 53.746 240.903 53.8989 240.918 54.0563C240.933 54.2138 240.918 54.3727 240.872 54.524C240.826 54.6753 240.75 54.816 240.65 54.9381C240.55 55.0603 240.426 55.1614 240.287 55.2357C240.147 55.3101 239.995 55.3562 239.837 55.3714C239.68 55.3866 239.522 55.3707 239.371 55.3244C239.22 55.2782 239.079 55.2026 238.957 55.102L187.966 13.0662L135.997 102.753L83.7197 73.351L32.2785 130.818C32.1659 130.944 32.0279 131.045 31.8736 131.114C31.7193 131.183 31.5522 131.218 31.3832 131.218Z" fill="#3F3D56"/>
<path d="M31.1833 141.25C37.3789 141.25 42.4015 136.22 42.4015 130.014C42.4015 123.809 37.3789 118.778 31.1833 118.778C24.9877 118.778 19.9651 123.809 19.9651 130.014C19.9651 136.22 24.9877 141.25 31.1833 141.25Z" fill="#EE8C82"/>
<path d="M83.2677 83.0646C89.4633 83.0646 94.4858 78.0342 94.4858 71.8288C94.4858 65.6235 89.4633 60.593 83.2677 60.593C77.072 60.593 72.0495 65.6235 72.0495 71.8288C72.0495 78.0342 77.072 83.0646 83.2677 83.0646Z" fill="#CCCCCC"/>
<path d="M135.352 112.358C141.548 112.358 146.57 107.327 146.57 101.122C146.57 94.9168 141.548 89.8864 135.352 89.8864C129.156 89.8864 124.134 94.9168 124.134 101.122C124.134 107.327 129.156 112.358 135.352 112.358Z" fill="#E6E6E6"/>
<path d="M187.436 22.4716C193.632 22.4716 198.654 17.4411 198.654 11.2358C198.654 5.03044 193.632 0 187.436 0C181.241 0 176.218 5.03044 176.218 11.2358C176.218 17.4411 181.241 22.4716 187.436 22.4716Z" fill="#EE8C82"/>
<path d="M287.599 106.152C293.794 106.152 298.817 101.122 298.817 94.9163C298.817 88.711 293.794 83.6805 287.599 83.6805C281.403 83.6805 276.38 88.711 276.38 94.9163C276.38 101.122 281.403 106.152 287.599 106.152Z" fill="#EE8C82"/>
<path d="M283.632 182.444C287.831 182.95 298.568 179.114 299.15 184.95C304.676 201.244 304.512 263.704 304.512 263.704L296.099 264.105C296.099 264.105 289.375 214.477 286.196 203.86C284.601 216.764 284.881 266.111 284.881 266.111L277.268 266.512C277.268 266.512 270.44 224.492 270.401 212.158C269.571 203.124 271.606 189.736 270.735 181.003C274.899 182.324 279.28 182.814 283.632 182.444L283.632 182.444Z" fill="#3F3D56"/>
<path d="M228.102 274.657V98.9957C228.102 96.743 229.684 94.9164 231.636 94.9164H247.405C249.357 94.9164 250.939 96.7426 250.939 98.9957V275.117L228.102 274.657Z" fill="#3F3D56"/>
<path d="M269.349 135.173C267.665 131.725 265.608 128.472 263.215 125.474C262.715 124.889 262.26 124.266 261.853 123.612C260.991 122.115 260.735 120.358 260.19 118.721C258.668 114.13 254.869 110.442 253.944 105.695C253.607 103.97 250.765 108.985 251.512 111.124C252.846 114.997 253.018 119.098 254.717 122.838C256.416 126.578 258.411 130.165 259.878 133.989C260.711 136.16 261.376 138.403 262.598 140.41C263.82 142.416 265.727 144.097 268.031 144.398C268.015 142.944 268.236 141.496 268.684 140.113C269.185 138.532 270.074 136.67 269.349 135.173Z" fill="#9E616A"/>
<path d="M294.554 137.773C294.451 134.936 294.893 132.105 295.856 129.435C296.224 128.411 296.657 127.372 296.621 126.285C296.569 125.273 296.088 124.347 295.652 123.432C294.145 120.282 293.087 116.943 292.046 113.612L290.042 107.332C289.389 106.853 293.204 106.686 294.017 107.814C296.677 111.514 298.692 115.763 300.8 119.804C301.337 120.767 301.796 121.772 302.17 122.81C302.685 124.491 302.928 126.244 302.891 128.002C302.891 131.289 302.459 134.563 302.01 137.821C301.725 139.864 301.353 142.087 299.81 143.439C298.208 141.385 296.597 139.378 294.554 137.773Z" fill="#9E616A"/>
<path d="M283.961 134.522C288.552 134.522 292.274 130.794 292.274 126.196C292.274 121.597 288.552 117.869 283.961 117.869C279.369 117.869 275.647 121.597 275.647 126.196C275.647 130.794 279.369 134.522 283.961 134.522Z" fill="#9E616A"/>
<path d="M277.202 117.888C277.109 117.636 277.088 117.362 277.142 117.098C277.196 116.834 277.322 116.59 277.507 116.394C277.714 116.23 277.99 116.169 278.213 116.013C278.529 115.747 278.788 115.418 278.974 115.049C279.542 114.253 280.373 113.684 281.319 113.443C282.266 113.202 283.267 113.305 284.146 113.734C285.519 114.454 286.349 115.896 287.571 116.867C288.191 117.37 288.911 117.744 289.535 118.247C290.785 119.328 291.673 120.768 292.081 122.371C292.486 123.964 292.722 125.594 292.787 127.236C292.852 127.729 292.832 128.229 292.73 128.716C292.603 129.123 292.415 129.509 292.17 129.859C290.914 131.765 289.259 133.496 287.185 134.479C285.111 135.463 282.587 135.623 280.542 134.593C280.336 134.51 280.159 134.368 280.032 134.185C279.916 133.907 279.888 133.6 279.952 133.305C280.063 132.14 279.833 130.968 279.29 129.932C278.909 129.17 278.338 128.514 278.034 127.725C277.751 126.842 277.63 125.915 277.676 124.988C277.64 122.588 277.803 120.198 277.202 117.888Z" fill="#2D293D"/>
<path d="M19.7644 274.896V190.089C19.7644 189.002 21.3466 188.12 23.2981 188.12H39.0677C41.0192 188.12 42.6014 189.002 42.6014 190.089V275.117L19.7644 274.896Z" fill="#3F3D56"/>
<path d="M328.6 276H0.400649C0.29439 276 0.192483 275.958 0.117347 275.882C0.0422108 275.807 0 275.705 0 275.599C0 275.492 0.0422108 275.39 0.117347 275.315C0.192483 275.24 0.29439 275.197 0.400649 275.197H328.599C328.706 275.197 328.807 275.24 328.883 275.315C328.958 275.39 329 275.492 329 275.599C329 275.705 328.958 275.807 328.883 275.882C328.807 275.958 328.706 276 328.599 276H328.6Z" fill="#E6E6E6"/>
<path d="M176.017 274.597V75.2541C176.017 72.6976 177.6 70.625 179.551 70.625H195.321C197.272 70.625 198.854 72.6976 198.854 75.2541V275.117L176.017 274.597Z" fill="#EE8C82"/>
<path d="M251.28 110.097C253.271 110.097 254.886 108.48 254.886 106.485C254.886 104.491 253.271 102.874 251.28 102.874C249.288 102.874 247.674 104.491 247.674 106.485C247.674 108.48 249.288 110.097 251.28 110.097Z" fill="#A0616A"/>
<path d="M291.345 108.492C293.336 108.492 294.951 106.875 294.951 104.88C294.951 102.886 293.336 101.269 291.345 101.269C289.353 101.269 287.739 102.886 287.739 104.88C287.739 106.875 289.353 108.492 291.345 108.492Z" fill="#A0616A"/>
<path d="M300.107 149.587C300.459 149.264 303.327 132.463 303.31 132.084C303.266 130.014 296.96 127.65 295.698 128.473C294.507 129.249 292.434 138.153 291.1 139.775L289.688 137.301H278.47L277.79 138.566C276.318 137.677 274.994 136.858 274.522 136.588C274.359 136.477 274.183 136.39 273.996 136.329C272.83 136.068 271.736 135.552 270.791 134.82C269.87 134.11 265.593 126.671 264.447 126.868C263.153 127.084 258.788 130.864 258.838 134.492C259.388 134.48 266.536 148.797 266.637 149.33C267.185 151.585 268.998 184.474 269.583 186.007C272.278 185.746 270.15 185.281 272.758 186.007C275.567 186.789 278.532 185.943 281.429 185.63C282.635 185.51 283.846 185.457 285.058 185.469C289.466 185.489 295.756 185.734 300.023 186.83C300.047 184.029 297.591 177.969 296.681 175.325C296.562 174.535 296.566 173.73 296.693 172.941C296.809 171.974 299.155 150.656 300.107 149.587Z" fill="#E6E6E6"/>
</svg>
